<svg xmlns="http://www.w3.org/2000/svg" id="Layer_2" data-name="Layer 2" viewBox="0 0 52.08 15.88"><defs><style>.cls-5{stroke-width:0;fill:#fff}</style></defs><g id="Layer_1-2" data-name="Layer 1"><path d="M0 14.56h9.57v.36H0zm42.53 0h9.55v.36h-9.55z" class="cls-5"/><path fill="#d87228" stroke-width="0" d="M39.02 5.78c-.61.6-1.64.51-1.87.48-.07-.19-.29-.93.36-1.66.65-.73 1.67-.56 1.9-.51.05.22.21 1.11-.39 1.69z"/><path fill="#e0c422" stroke-width="0" d="M37.2 4.16c-.01.85-.8 1.52-.99 1.66-.18-.08-.87-.46-.92-1.42-.05-.98.78-1.58.99-1.71.19.12.93.63.92 1.47z"/><path fill="#9fb83b" stroke-width="0" d="M35.24 6.18c-.19.07-.94.29-1.66-.36-.73-.65-.56-1.67-.51-1.9.22-.05 1.11-.21 1.69.39.6.61.51 1.64.48 1.87z"/><path fill="#64a561" stroke-width="0" d="M34.81 7.12c-.08.18-.46.87-1.42.92-.99.05-1.58-.78-1.71-.99.12-.19.62-.92 1.45-.92h.02c.85.01 1.52.8 1.66.99z"/><path d="M34.8 9.75c-.65.73-1.67.56-1.9.51-.05-.22-.21-1.11.39-1.69.61-.6 1.64-.51 1.87-.48.07.19.29.93-.36 1.66z" class="cls-5"/><path fill="#503f82" stroke-width="0" d="M37.02 9.95c.05.98-.78 1.58-.99 1.71-.19-.12-.93-.63-.92-1.47.01-.85.8-1.52.99-1.66.18.08.86.45.92 1.42z"/><path fill="#ce78a1" stroke-width="0" d="M39.24 10.43c-.22.05-1.11.21-1.69-.39-.6-.61-.51-1.64-.48-1.87.19-.07.93-.29 1.65.36.73.65.56 1.67.51 1.9z"/><path fill="#d24e53" stroke-width="0" d="M40.64 7.3c-.12.19-.62.92-1.45.92h-.02c-.86-.01-1.52-.8-1.66-.99.08-.18.45-.86 1.42-.92.98-.05 1.58.78 1.71.98z"/><path d="M6.66 9.49c-.53 1.2-1.98 1.79-4.37 1.79-.62 0-1.38-.03-2.29-.08V.77C1.16.73 2.16.71 3 .71c.62 0 1.17.08 1.67.23 1.25.39 1.87 1.2 1.87 2.41 0 .31-.06.62-.19.93-.3.72-.82 1.19-1.56 1.41.38.08.73.23 1.04.43.72.48 1.08 1.16 1.08 2.03 0 .51-.08.95-.25 1.34zM2.04 2.44v2.61h1.08c.2 0 .38-.03.56-.09.55-.21.82-.64.82-1.31 0-.12-.02-.25-.05-.37-.16-.58-.66-.87-1.5-.87-.18 0-.48.01-.91.03zm1.45 7.11c.91-.13 1.36-.62 1.36-1.45 0-.15-.02-.3-.05-.45-.18-.68-.69-1.02-1.55-1.02H2.03v2.89c.31.04.63.06.97.06.16 0 .32-.01.48-.03zm6.67 1.89c-1.27-.08-1.9-.84-1.9-2.29V0h2.01v9.12c.03.46.24.7.62.7.12 0 .29-.03.49-.08l.36 1.5c-.49.13-.95.2-1.36.2h-.22zm7.35-7.78c1.12.63 1.68 1.85 1.68 3.68 0 .83-.13 1.56-.4 2.18-.58 1.28-1.64 1.92-3.18 1.92-.72 0-1.34-.16-1.87-.49-1.04-.66-1.56-1.85-1.56-3.57 0-.92.17-1.71.51-2.37.61-1.17 1.63-1.76 3.06-1.76.67 0 1.26.14 1.76.42zm-1.44 6.09c.72-.23 1.08-1.02 1.08-2.38 0-.39-.03-.75-.09-1.07-.2-.96-.65-1.44-1.36-1.44-.15 0-.3.03-.45.08-.68.27-1.02 1.07-1.02 2.4 0 .42.04.8.11 1.13.21.9.65 1.34 1.34 1.34.13 0 .26-.02.39-.06zm8.83.73c-.55.64-1.33.96-2.35.96s-1.88-.31-2.64-.93l.73-1.17c.56.36 1.16.55 1.81.56.05 0 .11 0 .17-.02.57-.05.85-.32.85-.82 0-.12-.04-.25-.11-.37-.13-.2-.5-.42-1.1-.68-.34-.15-.6-.28-.77-.37-.87-.48-1.3-1.19-1.3-2.1 0-.56.21-1.05.62-1.47.55-.55 1.26-.82 2.15-.82.12 0 .25 0 .37.02 1.05.1 1.77.57 2.15 1.41l-1.27.76s-.05-.07-.08-.12a1.287 1.287 0 0 0-1.33-.53c-.41.08-.62.32-.62.73 0 .11.04.23.11.34.12.19.49.41 1.1.68.34.15.59.28.76.37.88.47 1.31 1.14 1.31 2.01 0 .61-.19 1.13-.56 1.58zm6.27 0c-.55.64-1.33.96-2.35.96s-1.88-.31-2.64-.93l.73-1.17c.56.36 1.16.55 1.81.56.05 0 .11 0 .17-.02.57-.05.85-.32.85-.82 0-.12-.04-.25-.11-.37-.13-.2-.5-.42-1.1-.68-.34-.15-.6-.28-.77-.37-.87-.48-1.3-1.19-1.3-2.1 0-.56.21-1.05.62-1.47.55-.55 1.26-.82 2.15-.82.12 0 .25 0 .37.02 1.05.1 1.77.57 2.15 1.41l-1.27.76s-.05-.07-.08-.12a1.287 1.287 0 0 0-1.33-.53c-.41.08-.62.32-.62.73 0 .11.04.23.11.34.12.19.49.41 1.1.68.34.15.59.28.76.37.88.47 1.31 1.14 1.31 2.01 0 .61-.19 1.13-.56 1.58zm20.25-1.16c.02.34.2.5.56.47l.1 1.47c-.35.08-.67.11-.97.11-1.11-.04-1.68-.68-1.7-1.9l-.05-3.35c0-.19-.02-.36-.05-.51-.12-.54-.39-.81-.8-.81-.12 0-.24.02-.35.07-.65.26-.96 1.04-.94 2.35l.06 3.99-2.01.03-.08-5.05c0-.13-.01-.26-.04-.39-.1-.63-.39-.94-.87-.93-.14 0-.29.04-.43.1-.62.29-.93 1.06-.91 2.32l.06 3.99-2.01.03-.13-7.73 1.93-.03.05.94c.04-.06.09-.13.15-.2.54-.67 1.18-1.01 1.93-1.02.1 0 .21 0 .31.01.81.1 1.37.56 1.71 1.38.06-.1.13-.21.2-.31.53-.75 1.2-1.13 2.01-1.15.37 0 .72.08 1.04.26.76.44 1.15 1.25 1.17 2.44l.06 3.43zm-28.89 4.69h-.71v-.34h1.82v.34h-.71v1.8h-.4v-1.8zm3.92-.34v2.14h-.4v-.92h-1.11v.92h-.4v-2.14h.4v.88h1.11v-.88h.4zm2.79 1.81v.33h-1.6v-2.14h1.56V14h-1.16v.56h1.03v.33h-1.03v.59h1.21zm2.46.33-.44-.63h-.56v.62h-.4v-2.14h.88c.19 0 .35.03.48.09s.24.15.32.26c.07.11.11.25.11.41s-.04.3-.12.42c-.08.12-.19.2-.34.26l.49.7h-.43zm-.14-1.69a.624.624 0 0 0-.39-.11h-.46v.85h.46c.17 0 .3-.04.39-.11.09-.07.13-.18.13-.32s-.04-.24-.13-.31zm2.97 1.2h-1.07l-.21.5h-.41l.96-2.14h.39l.97 2.14h-.42l-.21-.5zm-.13-.31-.4-.94-.4.94h.8zm3.01-1.25c.14.06.24.15.32.26s.11.25.11.41-.04.29-.11.41-.18.2-.32.26-.3.09-.48.09h-.48v.62h-.4v-2.14h.88c.19 0 .35.03.48.09zm-.11.98c.09-.07.13-.18.13-.31s-.04-.24-.13-.31a.624.624 0 0 0-.39-.11h-.46v.85h.46c.17 0 .3-.04.39-.11zm2.47.32v.76h-.4v-.75l-.84-1.39h.42l.63 1.04.63-1.04h.39l-.84 1.38zm-26.33.82-.2-.48h-1.11l-.2.48h-.45l1-2.27h.45l.98 2.27h-.47zm-1.15-.85h.8l-.4-.95-.4.95zm4.09-1.27c.14.1.21.24.21.42 0 .13-.04.23-.11.32s-.17.15-.29.18c.15.03.27.09.36.19.09.1.13.23.13.38 0 .19-.08.35-.23.46s-.36.17-.61.17H14.8v-2.27h1.01c.24 0 .43.05.57.15zm-.33.7c.06-.05.1-.12.1-.21s-.03-.15-.1-.2c-.06-.05-.15-.07-.26-.07h-.55v.55h.55c.11 0 .2-.02.26-.07zm.06.96c.08-.05.12-.13.12-.23s-.04-.17-.12-.22a.606.606 0 0 0-.32-.08h-.55v.6h.55c.14 0 .25-.02.32-.08zm3.41.46-.2-.48h-1.11l-.2.48h-.45l1-2.27h.45l.98 2.27h-.47zm-1.15-.85h.8l-.4-.95-.4.95z" class="cls-5"/></g></svg>